<svg id="Layer_3" enable-background="new 0 0 64 64" height="512" viewBox="0 0 64 64" width="512" xmlns="http://www.w3.org/2000/svg"><path d="m54.707 54.707c.191-.191.283-.447.284-.707h.009v-52c0-.552-.448-1-1-1h-44c-.552 0-1 .448-1 1v56c0 2.757 2.243 5 5 5h40c.404 0 .769-.244.924-.617.155-.374.069-.804-.217-1.09l-2.293-2.293c-.263-.263-.414-.628-.414-1s.151-.737.414-1zm-13.707-51.707h6v6.586l-2.293-2.293c-.391-.391-1.023-.391-1.414 0l-2.293 2.293zm-24 0v50h-3c-1.13 0-2.162.391-3 1.026v-51.026zm33.165 54h-34.165v2h34.165c.161.526.435 1.014.835 1.414l.586.586h-37.586c-1.654 0-3-1.346-3-3s1.346-3 3-3h37.586l-.586.586c-.4.4-.674.888-.835 1.414zm-31.165-4v-50h20v9c0 .404.244.769.617.924.374.154.803.068 1.09-.217l3.293-3.293 3.293 3.293c.191.191.447.293.707.293.129 0 .259-.025.383-.076.373-.155.617-.52.617-.924v-9h4v50z"/><path d="m50 17h-28c-.552 0-1 .448-1 1v16c0 .552.448 1 1 1h28c.552 0 1-.448 1-1v-16c0-.552-.448-1-1-1zm-1 16h-26v-14h26z"/><path d="m28 29h3v2h2v-6.5c0-1.93-1.57-3.5-3.5-3.5s-3.5 1.57-3.5 3.5v6.5h2zm1.5-6c.827 0 1.5.673 1.5 1.5v2.5h-3v-2.5c0-.827.673-1.5 1.5-1.5z"/><path d="m35 25h4v2h-4z"/><path d="m41.105 29.553c-.155.31-.138.678.044.973.183.294.504.474.851.474h5v-2h-3.382l3.276-6.553c.155-.31.138-.678-.044-.973-.182-.294-.503-.474-.85-.474h-5v2h3.382z"/><path d="m50 37h-28c-.552 0-1 .448-1 1v4c0 .552.448 1 1 1h28c.552 0 1-.448 1-1v-4c0-.552-.448-1-1-1zm-1 4h-26v-2h26z"/><path d="m50 45h-28c-.552 0-1 .448-1 1v4c0 .552.448 1 1 1h28c.552 0 1-.448 1-1v-4c0-.552-.448-1-1-1zm-1 4h-26v-2h26z"/></svg>