<?xml version="1.0" encoding="iso-8859-1"?>
<!-- Generator: Adobe Illustrator 19.0.0, SVG Export Plug-In . SVG Version: 6.00 Build 0)  -->
<svg version="1.1" id="Capa_1" xmlns="http://www.w3.org/2000/svg" xmlns:xlink="http://www.w3.org/1999/xlink" x="0px" y="0px"
	 viewBox="0 0 512 512" style="enable-background:new 0 0 512 512;" xml:space="preserve">
<g>
	<g>
		<path d="M402.686,173.094L258.293,56.587L109.438,173.094H0v282.319h512V173.094H402.686z M258.01,94.905l96.903,78.188h-196.8
			L258.01,94.905z M482,425.413H30V203.094h452V425.413z"/>
	</g>
</g>
<g>
	<g>
		<polygon points="148.93,339.079 148.93,324.742 181.954,324.742 181.954,304.519 148.93,304.519 148.93,291.719 187.586,291.719 
			187.586,269.959 123.971,269.959 123.971,360.839 188.738,360.839 188.738,339.079 		"/>
	</g>
</g>
<g>
	<g>
		<polygon points="278.08,269.959 251.2,269.959 234.688,298.631 218.176,269.959 191.168,269.959 221.504,316.039 192.192,360.839 
			219.2,360.839 234.688,333.446 250.176,360.839 277.057,360.839 247.744,316.039 		"/>
	</g>
</g>
<g>
	<g>
		<rect x="284.48" y="269.96" width="24.959" height="90.88"/>
	</g>
</g>
<g>
	<g>
		<polygon points="318.525,269.959 318.525,291.719 344.766,291.719 344.766,360.839 369.727,360.839 369.727,291.719 
			395.838,291.719 395.838,269.959 		"/>
	</g>
</g>
<g>
</g>
<g>
</g>
<g>
</g>
<g>
</g>
<g>
</g>
<g>
</g>
<g>
</g>
<g>
</g>
<g>
</g>
<g>
</g>
<g>
</g>
<g>
</g>
<g>
</g>
<g>
</g>
<g>
</g>
</svg>
