<svg height="512pt" viewBox="0 -27 512.001 512" width="512pt" xmlns="http://www.w3.org/2000/svg"><path d="m448.285156 329.226562 63.714844-63.710937-63.714844-63.714844 10.265625-10.265625c17.761719-17.761718 17.761719-46.660156.003907-64.421875-8.605469-8.601562-20.046876-13.339843-32.214844-13.339843-12.164063 0-23.605469 4.738281-32.207032 13.339843l-10.265624 10.265625-63.714844-63.714844-48.835938 48.839844v-62.433594h-90.105468v-14.515624c0-25.121094-20.433594-45.554688-45.554688-45.554688-25.117188 0-45.550781 20.433594-45.550781 45.554688v14.515624h-90.105469v120.140626h44.550781c8.558594 0 15.519531 6.960937 15.519531 15.515624 0 8.558594-6.960937 15.519532-15.519531 15.519532h-44.550781v120.140625h120.140625v-42.550781c0-8.558594 6.960937-15.519532 15.515625-15.519532 8.558594 0 15.519531 6.960938 15.519531 15.519532v42.550781h118.648438c-.007813 3.960937-1.519531 7.921875-4.535157 10.9375l-30.089843 30.089843 84.953125 84.949219 63.714844-63.714843 8.847656 8.851562c8.605468 8.601562 20.042968 13.34375 32.210937 13.34375s23.605469-4.738281 32.210938-13.34375c17.761719-17.761719 17.761719-46.660156 0-64.421875zm-207.003906-117.980468v90.105468h-60.070312v-12.515624c0-25.117188-20.433594-45.554688-45.554688-45.554688-25.117188 0-45.550781 20.4375-45.550781 45.554688v12.515624h-60.070313v-60.070312h14.515625c25.117188 0 45.554688-20.433594 45.554688-45.554688 0-25.117187-20.4375-45.550781-45.554688-45.550781h-14.515625v-60.070312h90.105469v-44.550781c0-8.558594 6.960937-15.519532 15.515625-15.519532 8.558594 0 15.519531 6.960938 15.519531 15.519532v44.550781h90.105469v90.105469h42.546875c8.558594 0 15.519531 6.960937 15.519531 15.515624 0 8.558594-6.960937 15.519532-15.519531 15.519532zm194.617188 170.015625c-6.050782 6.050781-15.894532 6.050781-21.945313 0l-30.085937-30.085938-63.714844 63.710938-42.476563-42.472657 8.851563-8.851562c17.757812-17.761719 17.757812-46.660156 0-64.421875-4.382813-4.378906-9.566406-7.777344-15.210938-10.050781v-47.808594h12.511719c25.121094 0 45.554687-20.433594 45.554687-45.554688 0-24.367187-19.234374-44.328124-43.320312-45.496093l34.089844-34.085938 63.714844 63.710938 31.503906-31.5c2.929687-2.933594 6.828125-4.546875 10.972656-4.546875s8.039062 1.613281 10.972656 4.546875c6.050782 6.046875 6.050782 15.894531 0 21.945312l-31.503906 31.5 63.714844 63.714844-63.714844 63.714844 30.085938 30.085937c6.050781 6.050782 6.050781 15.894532 0 21.945313zm0 0"/></svg>
