<?xml version="1.0" standalone="no"?>
<!DOCTYPE svg PUBLIC "-//W3C//DTD SVG 20010904//EN"
 "http://www.w3.org/TR/2001/REC-SVG-20010904/DTD/svg10.dtd">
<svg version="1.0" xmlns="http://www.w3.org/2000/svg"
 width="128.000000pt" height="128.000000pt" viewBox="0 0 128.000000 128.000000"
 preserveAspectRatio="xMidYMid meet">

<g transform="translate(0.000000,128.000000) scale(0.100000,-0.100000)"
fill="#ffffff" stroke="none">
<path d="M228 1199 c-25 -14 -24 -33 27 -609 38 -427 48 -507 62 -517 13 -10
94 -13 324 -13 268 0 308 2 320 16 9 11 28 185 61 557 l49 542 -22 18 c-19 16
-54 17 -413 17 -247 0 -397 -4 -408 -11z m792 -62 c0 -24 -76 -887 -86 -974
l-5 -53 -295 0 -294 0 0 23 c0 12 -20 247 -45 522 -25 275 -45 501 -45 503 0
1 173 2 385 2 l385 0 0 -23z"/>
<path d="M355 1076 c-31 -9 -41 -17 -43 -36 -2 -14 13 -210 33 -436 19 -227
35 -421 35 -433 0 -21 2 -21 255 -21 l254 0 5 33 c9 55 77 860 73 864 -2 2
-31 -4 -63 -12 -69 -18 -104 -15 -290 26 -141 31 -196 34 -259 15z" fill="#64B5F6"/>
</g>
</svg>
