<?xml version="1.0" standalone="no"?>
<!DOCTYPE svg PUBLIC "-//W3C//DTD SVG 20010904//EN"
 "http://www.w3.org/TR/2001/REC-SVG-20010904/DTD/svg10.dtd">
<svg version="1.0" xmlns="http://www.w3.org/2000/svg"
 width="225.000000pt" height="225.000000pt" viewBox="0 0 225.000000 225.000000"
 preserveAspectRatio="xMidYMid meet">

<g transform="translate(0.000000,225.000000) scale(0.100000,-0.100000)"
fill="#000000" stroke="none">
<path d="M900 2181 c-206 -45 -374 -137 -526 -286 -176 -173 -277 -365 -314
-597 -18 -110 -8 -341 18 -440 87 -325 340 -615 637 -729 161 -63 214 -72 405
-73 188 -1 261 12 407 70 265 106 494 334 596 594 60 152 72 221 71 410 -1
191 -10 244 -73 405 -115 298 -403 549 -729 637 -113 30 -375 35 -492 9z m427
-86 c387 -82 694 -392 768 -775 20 -105 21 -281 1 -380 -38 -198 -127 -363
-275 -511 -148 -148 -313 -237 -509 -275 -105 -20 -287 -18 -397 5 -384 79
-683 386 -766 786 -16 78 -17 284 0 360 67 320 255 567 536 707 106 53 203 81
350 102 52 7 221 -3 292 -19z"/>
<path d="M460 1240 c-17 -32 -4 -56 48 -89 73 -47 129 -63 212 -64 92 0 170
28 231 81 33 30 40 42 35 59 -12 36 -42 38 -94 4 -61 -39 -124 -61 -173 -61
-47 0 -133 31 -179 65 -41 30 -66 32 -80 5z"/>
<path d="M1276 1244 c-22 -21 -20 -39 7 -64 67 -64 193 -106 280 -95 127 17
251 97 231 149 -12 30 -43 28 -101 -7 -32 -19 -76 -41 -97 -47 -73 -23 -180 3
-255 61 -29 23 -45 24 -65 3z"/>
<path d="M965 799 c-186 -23 -245 -42 -245 -78 0 -40 23 -45 133 -26 165 28
339 30 496 6 163 -26 158 -26 171 -1 27 50 -20 71 -220 96 -124 15 -226 16
-335 3z"/>
</g>
</svg>
